<?xml version="1.0" encoding="utf-8"?>
<!-- Generator: Adobe Illustrator 19.1.1, SVG Export Plug-In . SVG Version: 6.00 Build 0)  -->
<svg version="1.1" id="Layer_1" xmlns="http://www.w3.org/2000/svg" xmlns:xlink="http://www.w3.org/1999/xlink" x="0px" y="0px"
	 viewBox="0 0 782.6 118.2" style="enable-background:new 0 0 782.6 118.2;" xml:space="preserve">
<style type="text/css">
	.st0{fill:#FFFFFF;}
</style>
<g>
	<g>
		<path class="st0" d="M0,116.9V11h37.5C69.8,11,86.6,27.5,86.6,64c0,36.5-16.8,52.9-49.1,52.9H0z M37.5,99.3
			c22,0,29.7-13.7,29.7-35.3c0-21.6-7.7-35.3-29.7-35.3H19v70.6H37.5z"/>
		<path class="st0" d="M179.7,11v17.6h-56.1v25.2h49.7v17.6h-49.7v27.7h58.6v17.6h-77.7V11H179.7z"/>
		<path class="st0" d="M260.5,91.7h-39.4l-9.1,25.2h-20.5L232.4,9.1h16.8l40.9,107.8h-20.5L260.5,91.7z M240.8,33.7l-13.7,40.7h27.4
			L240.8,33.7z"/>
		<path class="st0" d="M320.5,99.3h50.2v17.6h-69.2V11h19V99.3z"/>
		<path class="st0" d="M458.8,11v17.6h-56.1v25.2h49.7v17.6h-49.7v27.7h58.6v17.6h-77.6V11H458.8z"/>
		<path class="st0" d="M498.9,116.9h-19V11h43.7c18.3,0,36,6.1,36,32.2c0,18.7-9.1,27-20.9,30.1l25.7,43.6h-22.3l-23.8-41.5h-19.4
			V116.9z M524.8,57.6c6.7,0,15.3-1.2,15.3-14.4c0-13.3-8.7-14.5-15.3-14.5h-25.9v28.9H524.8z"/>
	</g>
	<g>
		<g>
			<path class="st0" d="M728.6,60l-10.5-16.3l0.3,25.4v45.5h-19V8.7h17.5l36.5,54.6l10.5,16.3l-0.3-25.4V8.7h19v105.9h-17.5
				L728.6,60z"/>
		</g>
		<g>
			<g>
				<path class="st0" d="M666.4,26.9l-14.3,14.9c5.2,6.1,8.4,14.1,8.4,23c0,18.8-14.2,34-31.7,34c-17.5,0-31.7-15.2-31.7-34
					c0-8.9,3.2-17,8.4-23l-14.3-14.9c-9.8,9.7-15.8,23.1-15.8,37.9c0,29.5,23.9,53.4,53.4,53.4c29.5,0,53.4-23.9,53.4-53.4
					C682.2,50,676.2,36.6,666.4,26.9z"/>
				<g>
					<path class="st0" d="M620.5,64.8V0h16.9v64.8H620.5z"/>
				</g>
			</g>
		</g>
	</g>
</g>
</svg>
