<?xml version="1.0" encoding="utf-8"?>
<!-- Generator: Adobe Illustrator 19.1.1, SVG Export Plug-In . SVG Version: 6.00 Build 0)  -->
<svg version="1.1" id="Layer_1" xmlns="http://www.w3.org/2000/svg" xmlns:xlink="http://www.w3.org/1999/xlink" x="0px" y="0px"
	 viewBox="0 0 207.2 118.2" style="enable-background:new 0 0 207.2 118.2;" xml:space="preserve" shape-rendering="geometricPrecision">
<style type="text/css">
	.st0{fill:#FFFFFF;}
</style>
<g>
	<g>
		<g>
			<path class="st0" d="M153.1,60l-10.5-16.3l0.3,25.4v45.5h-19V8.7h17.5L178,63.2l10.5,16.3l-0.3-25.4V8.7h19v105.9h-17.5L153.1,60
				z"/>
		</g>
		<g>
			<g>
				<path class="st0" d="M91,26.9L76.7,41.8c5.2,6.1,8.4,14.1,8.4,23c0,18.8-14.2,34-31.7,34c-17.5,0-31.7-15.2-31.7-34
					c0-8.9,3.2-17,8.4-23L15.8,26.9C6,36.6,0,50,0,64.8c0,29.5,23.9,53.4,53.4,53.4c29.5,0,53.4-23.9,53.4-53.4
					C106.8,50,100.7,36.6,91,26.9z"/>
				<g>
					<path class="st0" d="M45.1,64.8V0H62v64.8H45.1z"/>
				</g>
			</g>
		</g>
	</g>
</g>
</svg>
